<svg width="20" height="20" viewBox="0 0 20 20" fill="none" xmlns="http://www.w3.org/2000/svg">
<path d="M7.6275 4.50667C8.68334 2.61334 9.21084 1.66667 10 1.66667C10.7892 1.66667 11.3167 2.61334 12.3725 4.50667L12.6458 4.99667C12.9458 5.53501 13.0958 5.80417 13.3292 5.98167C13.5625 6.15917 13.8542 6.22501 14.4375 6.35667L14.9675 6.47667C17.0175 6.94084 18.0417 7.17251 18.2858 7.95667C18.5292 8.74001 17.8308 9.55751 16.4333 11.1917L16.0717 11.6142C15.675 12.0783 15.4758 12.3108 15.3867 12.5975C15.2975 12.885 15.3275 13.195 15.3875 13.8142L15.4425 14.3783C15.6533 16.5592 15.7592 17.6492 15.1208 18.1333C14.4825 18.6183 13.5225 18.1758 11.6042 17.2925L11.1067 17.0642C10.5617 16.8125 10.2892 16.6875 10 16.6875C9.71084 16.6875 9.43833 16.8125 8.8925 17.0642L8.39667 17.2925C6.4775 18.1758 5.5175 18.6175 4.88 18.1342C4.24084 17.6492 4.34667 16.5592 4.5575 14.3783L4.6125 13.815C4.6725 13.195 4.7025 12.885 4.6125 12.5983C4.52417 12.3108 4.325 12.0783 3.92834 11.615L3.56667 11.1917C2.16917 9.55834 1.47084 8.74084 1.71417 7.95667C1.95834 7.17251 2.98334 6.94001 5.03334 6.47667L5.56334 6.35667C6.14584 6.22501 6.43667 6.15917 6.67084 5.98167C6.90417 5.80417 7.05417 5.53501 7.35417 4.99667L7.6275 4.50667Z" fill="#585858" stroke="#585858" stroke-width="1.5"/>
</svg>
